# xmcd
#
# Track frame offsets: 
#        150
#        15597
#        35746
#        45895
#        57729
#        78575
#        91929
#        107854
#        120746
#        138215
#        159649
#        170182
#        180449
#
# Disc length: 2585 seconds
#
# Revision: 0
# Processed by: cddbd v1.5.2PL0 Copyright (c) Steve Scherf et al.
# Submitted via: ExactAudioCopy v0.95b3
#
DISCID=aa0a170d
DTITLE=Joe Cocker  - Joe Cocker! (1969) 
DYEAR=1900
DGENRE=
TTITLE0=Dear Landlord (Bob Dylan)
TTITLE1=Bird on the Wire (Leonard Cohen)
TTITLE2=Lawdy Miss Clawdy (Lloyd Price)
TTITLE3=She Came in Through the Bathroom Window (Lennon\\McCartney)
TTITLE4=Hitchcock Railway (Dunn)
TTITLE5=That's Your Business Now (Joe Cocker, Chris Stainton)
TTITLE6=Something (George Harrison)
TTITLE7=Delta Lady (Leon Russell)
TTITLE8=Hello, Little Friend (Leon Russell)
TTITLE9=Darling Be Home Soon (John Sebastian)
TTITLE10=The New Age Of Lily (bonus track_Cocker \\ Stainton)
TTITLE11=Something's Comming On (bonus track_Cocker \\ Stainton)
TTITLE12=She's Good To Me (bonus track_Cocker \\ Stainton)
EXTD=
EXTT0=
EXTT1=
EXTT2=
EXTT3=
EXTT4=
EXTT5=
EXTT6=
EXTT7=
EXTT8=
EXTT9=
EXTT10=
EXTT11=
EXTT12=
PLAYORDER=
